<?xml version="1.0" standalone="no"?>
<!DOCTYPE svg PUBLIC "-//W3C//DTD SVG 20010904//EN"
 "http://www.w3.org/TR/2001/REC-SVG-20010904/DTD/svg10.dtd">
<svg version="1.0" xmlns="http://www.w3.org/2000/svg"
 width="1622.000000pt" height="1383.000000pt" viewBox="0 0 1622.000000 1383.000000"
 preserveAspectRatio="xMidYMid meet">

<g transform="translate(0.000000,1383.000000) scale(0.100000,-0.100000)"
fill="#000000" stroke="none">
<path d="M7075 13049 c-292 -19 -276 -24 80 -24 387 -1 576 -14 905 -61 1394
-199 2712 -869 3700 -1880 1004 -1027 1614 -2336 1764 -3784 35 -338 41 -655
21 -1090 -3 -81 -3 -87 5 -40 45 276 58 911 26 1260 -20 215 -47 420 -82 610
-260 1413 -1024 2709 -2134 3621 -1111 912 -2496 1405 -3925 1397 -126 0 -288
-5 -360 -9z"/>
<path d="M6723 13013 c9 -2 23 -2 30 0 6 3 -1 5 -18 5 -16 0 -22 -2 -12 -5z"/>
<path d="M7510 11577 c-483 -310 -593 -400 -766 -624 -94 -124 -128 -159 -199
-212 -122 -90 -239 -203 -263 -254 -28 -61 -50 -127 -82 -254 l-28 -111 -124
-179 c-112 -160 -134 -199 -216 -383 -51 -113 -92 -210 -92 -216 0 -6 18 -39
40 -73 l40 -62 8 -212 8 -212 55 -102 c29 -57 56 -103 59 -103 4 0 32 21 65
48 72 58 127 147 305 497 107 209 139 283 196 453 68 199 70 205 129 272 33
37 90 93 126 123 l67 56 114 288 c100 251 118 304 137 413 29 158 29 160 49
160 32 0 43 17 63 96 18 71 25 83 65 118 32 27 59 66 94 135 42 85 59 106 134
175 48 43 93 90 100 105 17 32 31 121 20 120 -5 0 -52 -28 -104 -62z"/>
<path d="M5466 9162 l-139 -87 -82 -157 -83 -156 40 -329 41 -328 -14 -152
-14 -152 113 -213 113 -213 -6 -80 c-3 -44 -8 -120 -11 -170 l-6 -90 94 -52
95 -53 124 0 c148 0 418 16 509 31 36 5 84 21 106 34 57 33 226 101 434 175
161 57 336 101 456 115 27 3 74 10 104 15 30 5 150 9 267 8 l212 -1 27 -29
c15 -15 35 -28 43 -28 9 1 97 31 195 68 l180 68 73 348 74 349 264 321 c145
176 261 323 259 325 -2 2 -122 12 -267 22 l-262 17 -301 105 c-308 107 -322
110 -514 122 -167 9 -417 27 -580 41 l-185 16 -218 -30 c-120 -16 -219 -32
-221 -33 -1 -2 -49 -90 -106 -194 l-103 -190 -143 -109 c-78 -59 -147 -105
-152 -102 -5 3 -53 84 -106 180 l-96 174 0 201 c0 201 0 201 -27 251 -16 27
-32 49 -38 49 -5 0 -73 -40 -149 -87z"/>
<path d="M8769 8371 l-294 -336 -65 -357 -65 -357 -195 -82 c-107 -45 -197
-84 -199 -85 -2 -2 25 -37 60 -79 63 -75 66 -77 194 -133 72 -31 199 -95 284
-141 l154 -84 121 12 c169 16 161 17 195 -33 47 -68 52 -71 166 -96 104 -23
107 -24 125 -60 25 -49 30 -52 140 -95 110 -44 116 -47 140 -94 16 -32 34 -44
177 -109 l158 -72 85 -194 85 -194 48 5 c56 7 51 29 36 -197 l-12 -165 98
-225 c54 -124 170 -407 257 -630 88 -223 162 -410 165 -416 2 -6 -31 -41 -73
-78 -45 -38 -94 -92 -116 -126 -36 -58 -39 -60 -81 -60 -39 0 -51 -6 -115 -62
l-72 -63 0 -90 0 -90 128 -191 127 -191 310 -288 c217 -201 376 -339 530 -458
121 -94 236 -183 255 -198 33 -26 47 -29 254 -50 l218 -21 84 83 c46 46 84 87
84 92 0 4 -49 85 -110 181 -111 175 -131 212 -113 205 5 -2 72 -43 149 -91
l139 -86 180 -44 c178 -43 181 -44 210 -26 46 28 55 46 55 117 -1 100 -19 130
-161 261 -236 219 -250 235 -425 530 -70 118 -206 343 -301 499 l-174 283 -60
291 -60 290 16 426 c15 413 15 441 -7 938 -21 499 -21 514 -4 610 16 82 17
119 10 219 l-9 121 -525 507 c-437 423 -534 512 -580 533 -49 22 -1184 520
-1286 563 l-41 18 -294 -337z"/>
<path d="M4547 8085 c-15 -8 -54 -37 -85 -65 -37 -33 -65 -50 -82 -50 -22 0
-31 -8 -45 -39 -14 -32 -25 -41 -60 -51 -36 -10 -49 -22 -95 -87 l-52 -76 -71
6 c-40 3 -81 8 -92 12 -19 6 -20 2 -17 -140 l4 -147 -46 -69 c-46 -68 -46 -71
-55 -182 -11 -125 -1 -278 24 -372 59 -227 215 -380 450 -441 87 -23 368 -26
490 -5 l80 13 126 128 c143 145 247 278 272 347 27 76 40 198 33 313 l-6 105
-52 75 c-28 41 -127 182 -220 313 -167 236 -170 239 -270 313 -101 75 -166
114 -190 114 -7 0 -26 -7 -41 -15z"/>
<path d="M13532 6075 c0 -16 2 -22 5 -12 2 9 2 23 0 30 -3 6 -5 -1 -5 -18z"/>
<path d="M3155 2554 c282 -280 491 -456 800 -673 897 -627 1931 -992 3065
-1082 188 -15 674 -15 860 0 731 58 1373 215 2014 492 258 112 618 302 839
443 l57 37 -261 324 -260 324 -76 -60 c-460 -365 -1042 -675 -1636 -870 -882
-290 -1871 -346 -2798 -158 -1013 205 -1918 654 -2719 1349 -66 57 -31 19 115
-126z"/>
</g>
</svg>
